<svg width="352" height="338" viewBox="0 0 352 338" fill="none" xmlns="http://www.w3.org/2000/svg">
<g filter="url(#filter0_d_936_2799)">
<rect x="12.5" y="7.5" width="327" height="313" rx="14.5" fill="white" stroke="#DFE4EA"/>
<path d="M233.648 96.648L234.959 90.1901L249.411 82.4999C250.369 81.9885 251.2 81.496 251.904 81.0225C252.62 80.5404 253.2 80.0136 253.642 79.4422C254.095 78.8729 254.4 78.2009 254.557 77.4259C254.73 76.5756 254.694 75.8118 254.449 75.1345C254.215 74.4594 253.812 73.8957 253.24 73.4434C252.67 72.9804 251.97 72.6644 251.138 72.4956C250.306 72.3267 249.538 72.3444 248.833 72.5487C248.138 72.7551 247.553 73.1462 247.076 73.7218C246.599 74.2974 246.267 75.048 246.079 75.9736L237.523 74.2367C237.995 71.9119 238.925 70.0163 240.314 68.55C241.703 67.0837 243.445 66.0925 245.541 65.5766C247.636 65.0607 249.97 65.0637 252.541 65.5856C255.198 66.1251 257.413 67.0174 259.185 68.2624C260.97 69.4989 262.236 70.9888 262.985 72.7321C263.744 74.4776 263.915 76.3782 263.497 78.4339C263.24 79.704 262.718 80.9149 261.933 82.0667C261.15 83.2078 259.919 84.3979 258.239 85.637C256.559 86.876 254.242 88.2884 251.288 89.874L247.652 91.8256L247.613 92.0193L260.576 94.651L259.121 101.819L233.648 96.648Z" fill="#B6252A"/>
<path d="M275.96 79.4175L278.03 87.8392L283.414 80.9307L292.294 82.7334L283.101 93.7772L287.584 107.597L278.769 105.808L276.155 97.074L270.472 104.124L261.527 102.308L271.11 91.3429L267.015 77.6016L275.96 79.4175Z" fill="#B6252A"/>
<path fill-rule="evenodd" clip-rule="evenodd" d="M167.85 89.511C167.85 87.0197 165.84 85 163.36 85H131.925C112.084 85 96 101.157 96 121.088V229.354C96 249.285 112.084 265.442 131.925 265.442H203.775C223.616 265.442 239.7 249.285 239.7 229.354V161.688C239.7 159.196 237.69 157.177 235.21 157.177H212.757C187.955 157.177 167.85 136.98 167.85 112.066V89.511ZM232.69 139.133C235.676 139.133 237.823 136.236 236.388 133.605C235.17 131.371 233.634 129.301 231.809 127.468L197.425 92.9275C195.599 91.0941 193.539 89.5509 191.316 88.3274C188.696 86.8864 185.813 89.0423 185.813 92.0422V112.066C185.813 127.015 197.876 139.133 212.757 139.133H232.69Z" fill="#B6252A"/>
</g>
<defs>
<filter id="filter0_d_936_2799" x="0" y="0" width="352" height="338" filterUnits="userSpaceOnUse" color-interpolation-filters="sRGB">
<feFlood flood-opacity="0" result="BackgroundImageFix"/>
<feColorMatrix in="SourceAlpha" type="matrix" values="0 0 0 0 0 0 0 0 0 0 0 0 0 0 0 0 0 0 127 0" result="hardAlpha"/>
<feOffset dy="5"/>
<feGaussianBlur stdDeviation="6"/>
<feComposite in2="hardAlpha" operator="out"/>
<feColorMatrix type="matrix" values="0 0 0 0 0 0 0 0 0 0 0 0 0 0 0 0 0 0 0.1 0"/>
<feBlend mode="normal" in2="BackgroundImageFix" result="effect1_dropShadow_936_2799"/>
<feBlend mode="normal" in="SourceGraphic" in2="effect1_dropShadow_936_2799" result="shape"/>
</filter>
</defs>
</svg>
