<svg width="434" height="338" viewBox="0 0 434 338" fill="none" xmlns="http://www.w3.org/2000/svg">
<g filter="url(#filter0_d_936_2772)">
<rect x="12.5" y="7.5" width="409" height="313" rx="14.5" fill="white" stroke="#DFE4EA"/>
<path d="M86.5 194.246V194.746H87H130.99V208.505V209.005H131.49H155.254H155.754V208.505V194.746H165.796H166.296V194.246V174.996V174.496H165.796H155.754V117.248V116.748H155.254H141.817H141.317H132.026H131.526H123.807H123.533L123.385 116.979L86.5784 174.728L86.5 174.85V174.996V194.246ZM131.526 174.496H111.978V174.428L131.526 143.51V174.496ZM216.057 211.5H216.059C224.445 211.5 231.702 209.595 237.81 205.765L237.811 205.764C243.947 201.905 248.669 196.345 251.98 189.107C255.293 181.867 256.939 173.178 256.939 163.056C256.969 152.992 255.338 144.404 252.023 137.31C248.71 130.22 243.987 124.808 237.849 121.098C231.713 117.359 224.443 115.5 216.059 115.5C207.676 115.5 200.406 117.344 194.27 121.053L194.269 121.053C188.161 124.764 183.452 130.175 180.139 137.266L180.138 137.267C176.854 144.36 175.208 152.961 175.178 163.053C175.148 173.117 176.78 181.777 180.093 189.018C183.405 196.256 188.126 201.816 194.262 205.675C200.399 209.535 207.671 211.47 216.057 211.5ZM226.175 183.913L226.175 183.914C223.503 188.259 220.133 190.359 216.059 190.359C213.327 190.359 210.898 189.427 208.752 187.544C206.642 185.666 204.952 182.731 203.717 178.682C202.486 174.618 201.878 169.415 201.908 163.058C201.967 153.697 203.351 146.95 205.986 142.733C208.625 138.509 211.979 136.462 216.059 136.462C218.793 136.462 221.208 137.382 223.323 139.235L223.326 139.237C225.435 141.057 227.123 143.903 228.357 147.831C229.587 151.746 230.21 156.814 230.21 163.054V163.056C230.24 172.623 228.87 179.548 226.175 183.913ZM266.704 194.246V194.746H267.204H311.194V208.505V209.005H311.694H335.458H335.958V208.505V194.746H346H346.5V194.246V174.996V174.496H346H335.958V117.248V116.748H335.458H322.022H321.522H312.23H311.73H304.011H303.737L303.59 116.979L266.783 174.728L266.704 174.85V174.996V194.246ZM292.183 174.428L311.73 143.51V174.496H292.183V174.428Z" fill="#B6252A" stroke="#DFE4EA"/>
</g>
<defs>
<filter id="filter0_d_936_2772" x="0" y="0" width="434" height="338" filterUnits="userSpaceOnUse" color-interpolation-filters="sRGB">
<feFlood flood-opacity="0" result="BackgroundImageFix"/>
<feColorMatrix in="SourceAlpha" type="matrix" values="0 0 0 0 0 0 0 0 0 0 0 0 0 0 0 0 0 0 127 0" result="hardAlpha"/>
<feOffset dy="5"/>
<feGaussianBlur stdDeviation="6"/>
<feComposite in2="hardAlpha" operator="out"/>
<feColorMatrix type="matrix" values="0 0 0 0 0 0 0 0 0 0 0 0 0 0 0 0 0 0 0.1 0"/>
<feBlend mode="normal" in2="BackgroundImageFix" result="effect1_dropShadow_936_2772"/>
<feBlend mode="normal" in="SourceGraphic" in2="effect1_dropShadow_936_2772" result="shape"/>
</filter>
</defs>
</svg>
