<svg width="20" height="20" viewBox="0 0 20 20" fill="none" xmlns="http://www.w3.org/2000/svg">
<path fill-rule="evenodd" clip-rule="evenodd" d="M1.66669 10.0001C1.66669 5.39771 5.39765 1.66675 10 1.66675C14.6024 1.66675 18.3334 5.39771 18.3334 10.0001C18.3334 14.6025 14.6024 18.3334 10 18.3334C5.39765 18.3334 1.66669 14.6025 1.66669 10.0001ZM10 3.33341C6.31812 3.33341 3.33335 6.31818 3.33335 10.0001C3.33335 13.682 6.31812 16.6667 10 16.6667C13.6819 16.6667 16.6667 13.682 16.6667 10.0001C16.6667 6.31818 13.6819 3.33341 10 3.33341Z" fill="white"/>
<path fill-rule="evenodd" clip-rule="evenodd" d="M9.99998 5.83325C10.4602 5.83325 10.8333 6.20635 10.8333 6.66659V9.16659H13.3333C13.7936 9.16659 14.1666 9.53968 14.1666 9.99992C14.1666 10.4602 13.7936 10.8333 13.3333 10.8333H10.8333V13.3333C10.8333 13.7935 10.4602 14.1666 9.99998 14.1666C9.53974 14.1666 9.16665 13.7935 9.16665 13.3333V10.8333H6.66665C6.20641 10.8333 5.83331 10.4602 5.83331 9.99992C5.83331 9.53968 6.20641 9.16659 6.66665 9.16659H9.16665V6.66659C9.16665 6.20635 9.53974 5.83325 9.99998 5.83325Z" fill="white"/>
</svg>
