<svg width="24" height="24" viewBox="0 0 24 24" fill="none" xmlns="http://www.w3.org/2000/svg">
<path fill-rule="evenodd" clip-rule="evenodd" d="M12 2C9.23858 2 7 4.23858 7 7C7 9.76142 9.23858 12 12 12C14.7614 12 17 9.76142 17 7C17 4.23858 14.7614 2 12 2Z" fill="white"/>
<path fill-rule="evenodd" clip-rule="evenodd" d="M9.00001 13C7.33726 13 5.73824 13.7585 4.80116 14.9004C4.32556 15.48 3.99122 16.1971 3.96211 16.9919C3.93238 17.8036 4.22537 18.5958 4.82959 19.2871C6.30215 20.9716 8.65328 22 12 22C15.3467 22 17.6979 20.9716 19.1704 19.2871C19.7747 18.5958 20.0676 17.8036 20.0379 16.9919C20.0088 16.1971 19.6745 15.48 19.1989 14.9004C18.2618 13.7585 16.6628 13 15 13H9.00001Z" fill="white"/>
</svg>
